<svg width="184" height="32" viewBox="0 0 184 32" fill="none" xmlns="http://www.w3.org/2000/svg">
<g clip-path="url(#clip0_3582_2644)">
<path d="M68.175 19.0469L61.546 9.79932H68.6443L71.9547 14.6084L75.3803 9.79932H82.0422L75.4874 19.0469L82.3304 28.5909H76.6073C75.7426 28.5909 74.9274 28.1791 74.4251 27.4792L71.5924 23.5677L67.9526 28.5909H61.2908L68.175 19.0469Z" fill="#272478"/>
<path d="M84.8584 20.249H88.1358C88.3911 23.6747 91.0509 25.931 94.9459 25.931C98.3715 25.931 100.809 24.3664 100.809 21.5995C100.809 18.4292 97.6798 17.7786 93.8177 17.1199C89.7004 16.4281 85.476 15.0777 85.476 10.1286C85.476 5.79716 89.0087 2.88208 94.1801 2.88208C99.862 2.88208 103.354 6.05244 103.65 10.6392H100.373C100.01 7.69114 97.6386 5.75599 94.1801 5.75599C90.7215 5.75599 88.6464 7.21353 88.6464 9.94744C88.6464 13.0025 91.7426 13.6283 95.5635 14.2789C99.7138 14.9706 103.979 16.354 103.979 21.3113C103.979 25.7169 100.266 28.8131 94.913 28.8131C88.6875 28.8131 85.0478 25.2804 84.8584 20.2573V20.249Z" fill="#272478"/>
<path d="M106.82 19.3021C106.82 13.6614 110.386 9.79932 115.631 9.79932C120.877 9.79932 124.368 13.1838 124.368 18.8328V19.8868H109.95V20.1421C109.95 23.6748 112.28 26.1534 115.813 26.1534C118.505 26.1534 120.548 24.77 121.165 22.3655H124.187C123.463 26.0793 120.325 28.8132 116.027 28.8132C110.452 28.8132 106.812 24.9923 106.812 19.3104L106.82 19.3021ZM121.239 17.3752C120.951 14.2049 118.761 12.4262 115.664 12.4262C112.931 12.4262 110.386 14.2872 110.057 17.3752H121.239Z" fill="#272478"/>
<path d="M127.58 10.0134H130.166L130.396 11.4462C130.462 11.8662 130.964 12.0309 131.269 11.7426C132.414 10.6557 134.143 9.79102 136.679 9.79102C140.871 9.79102 144.181 12.0885 144.181 18.2398V28.5826H142.394C141.727 28.5826 141.192 28.0473 141.192 27.3803V18.421C141.192 14.5589 139.405 12.5249 136.202 12.5249C132.447 12.5249 130.561 14.8553 130.561 18.7915V28.5908H127.572V10.0134H127.58Z" fill="#272478"/>
<path d="M147.104 22.4724H150.16C150.267 24.6546 152.202 26.2192 155.298 26.2192C158.032 26.2192 159.745 25.1981 159.745 23.3453C159.745 21.3772 157.818 20.9408 155.117 20.6114C150.892 20.1008 147.508 19.335 147.508 15.3659C147.508 11.9814 150.604 9.79102 154.787 9.79102C158.971 9.79102 162.075 11.792 162.363 15.5471H159.308C159.086 13.7601 157.447 12.3767 154.722 12.3767C151.996 12.3767 150.497 13.3237 150.497 15.0694C150.497 17.1117 152.424 17.5069 155.125 17.8363C159.349 18.3469 162.734 19.1868 162.734 23.1889C162.734 26.6474 159.424 28.7967 155.306 28.7967C150.497 28.7967 147.22 26.5404 147.113 22.4642L147.104 22.4724Z" fill="#272478"/>
<path d="M165.748 19.3021C165.748 13.6614 169.313 9.79932 174.559 9.79932C179.804 9.79932 183.296 13.1838 183.296 18.8328V19.8868H168.877V20.1421C168.877 23.6748 171.207 26.1534 174.74 26.1534C177.433 26.1534 179.475 24.77 180.093 22.3655H183.115C182.39 26.0793 179.253 28.8132 174.954 28.8132C169.379 28.8132 165.74 24.9923 165.74 19.3104L165.748 19.3021ZM180.167 17.3752C179.879 14.2049 177.688 12.4262 174.592 12.4262C171.858 12.4262 169.313 14.2872 168.984 17.3752H180.167Z" fill="#272478"/>
<path d="M42.9192 19.8045V28.5991H36.7761V3.0304H50.701C56.597 3.0304 59.9732 5.93724 59.9732 10.3346C59.9732 13.6367 58.0546 15.5801 55.5265 16.3788C56.5723 16.7906 59.3145 17.7952 59.3145 22.3901V23.6665C59.3145 25.4205 59.2815 27.3886 59.6356 28.5991H54.4148C53.6984 28.5991 53.0643 28.0803 52.9573 27.3721C52.8091 26.384 52.7844 25.0911 52.7844 23.2548V22.4149C52.7844 19.8292 51.8374 18.7504 48.1071 18.7504H43.965C43.3803 18.7504 42.911 19.2198 42.911 19.8045H42.9192ZM42.9192 14.0896H49.3176C52.3314 14.0896 53.6325 13.0026 53.6325 10.8451C53.6325 8.82762 52.2985 7.67476 49.367 7.67476H43.9732C43.3886 7.67476 42.9192 8.14414 42.9192 8.7288V14.0813V14.0896Z" fill="#272478"/>
<path d="M2.16572 32H18.0175C19.2115 32 20.1832 31.0284 20.1832 29.8343V25.4123C20.1832 23.543 21.6984 22.0278 23.5677 22.0278H27.965C29.159 22.0278 30.1307 21.0561 30.1307 19.8621V13.9743C30.1307 12.7803 29.159 11.8086 27.965 11.8086H22.1678C20.9738 11.8086 20.0021 12.7803 20.0021 13.9743V20.7103C20.0021 21.3526 19.4833 21.8714 18.841 21.8714H2.16572C0.971693 21.8714 0 22.8431 0 24.0371V29.8343C0 31.0284 0.971693 32 2.16572 32Z" fill="url(#paint0_linear_3582_2644)"/>
<path d="M27.965 0H12.1132C10.9192 0 9.9475 0.971693 9.9475 2.16572V6.58775C9.9475 8.45702 8.43232 9.97221 6.56305 9.97221H2.16572C0.971693 9.97221 0 10.9439 0 12.1379V18.0257C0 19.2198 0.971693 20.1915 2.16572 20.1915H7.96294C9.15697 20.1915 10.1287 19.2198 10.1287 18.0257V11.2898C10.1287 10.6475 10.6475 10.1287 11.2898 10.1287H27.965C29.159 10.1287 30.1307 9.15697 30.1307 7.96294V2.16572C30.1307 0.971693 29.159 0 27.965 0Z" fill="url(#paint1_linear_3582_2644)"/>
</g>
<defs>
<linearGradient id="paint0_linear_3582_2644" x1="21.2208" y1="35.0304" x2="6.39012" y2="3.39274" gradientUnits="userSpaceOnUse">
<stop stop-color="#00D4F4"/>
<stop offset="0.87" stop-color="#0200DB"/>
</linearGradient>
<linearGradient id="paint1_linear_3582_2644" x1="26.9521" y1="35.648" x2="11.2239" y2="1.83634" gradientUnits="userSpaceOnUse">
<stop offset="0.54" stop-color="#0C8EFF"/>
<stop offset="1" stop-color="#14F2FE"/>
</linearGradient>
<clipPath id="clip0_3582_2644">
<rect width="183.304" height="32" fill="white"/>
</clipPath>
</defs>
</svg>
